<?xml version="1.0" ?><!-- Uploaded to: SVG Repo, www.svgrepo.com, Generator: SVG Repo Mixer Tools -->
<svg fill="#383B58" width="800px" height="800px" viewBox="0 0 24 24" id="Layer_1" version="1.1" xml:space="preserve" xmlns="http://www.w3.org/2000/svg" xmlns:xlink="http://www.w3.org/1999/xlink"><path d="M13.54,8.76c0.19,0.32,0.52,0.5,0.87,0.5c0.17,0,0.34-0.04,0.5-0.13c0.48-0.28,0.64-0.89,0.37-1.37  c-0.19-0.32-0.41-0.63-0.66-0.91c-0.37-0.41-1-0.45-1.41-0.08c-0.41,0.37-0.45,1-0.08,1.41C13.27,8.35,13.42,8.55,13.54,8.76z"/><path d="M15.1,10.3c-0.54-0.09-1.06,0.27-1.16,0.81C13.65,12.79,12.2,14,10.5,14C8.57,14,7,12.43,7,10.5S8.57,7,10.5,7  c0.13,0,0.26,0.01,0.39,0.02c0.55,0.05,1.04-0.33,1.11-0.88c0.06-0.55-0.33-1.04-0.88-1.11C10.91,5.01,10.71,5,10.5,5  C7.47,5,5,7.47,5,10.5S7.47,16,10.5,16c2.68,0,4.95-1.91,5.42-4.54C16.01,10.92,15.65,10.4,15.1,10.3z"/><path d="M16.8,16.19c1.36-1.51,2.2-3.5,2.2-5.69C19,5.81,15.19,2,10.5,2C5.81,2,2,5.81,2,10.5c0,4.69,3.81,8.5,8.5,8.5  c1.77,0,3.41-0.54,4.78-1.47l5.08,4.24C20.55,21.92,20.77,22,21,22c0.29,0,0.57-0.12,0.77-0.36c0.35-0.42,0.3-1.06-0.13-1.41  L16.8,16.19z M4,10.5C4,6.92,6.92,4,10.5,4S17,6.92,17,10.5S14.08,17,10.5,17S4,14.08,4,10.5z"/><path d="M10.79,8.79L10.5,9.09l-0.29-0.29c-0.39-0.39-1.02-0.39-1.41,0s-0.39,1.02,0,1.41l0.29,0.29l-0.29,0.29  c-0.39,0.39-0.39,1.02,0,1.41c0.2,0.2,0.45,0.29,0.71,0.29s0.51-0.1,0.71-0.29l0.29-0.29l0.29,0.29c0.2,0.2,0.45,0.29,0.71,0.29  s0.51-0.1,0.71-0.29c0.39-0.39,0.39-1.02,0-1.41l-0.29-0.29l0.29-0.29c0.39-0.39,0.39-1.02,0-1.41S11.18,8.4,10.79,8.79z"/></svg>